<svg xmlns="http://www.w3.org/2000/svg" viewBox="0 0 1200 180" fill="none">
  <g stroke="#315D54" stroke-width="3" stroke-linecap="round" stroke-linejoin="round">
    <path d="M18 96c48 0 52-18 91-7 22 6 31 19 55 10M216 95c46-9 67 15 111 2 20-6 28-17 49-17M548 95c33 0 43 14 75 7M683 98c25-4 34-18 61-12M842 98c37 8 51-12 88-6M1080 96c35 0 49-11 102 0" opacity=".8"/>
    <circle cx="180" cy="88" r="36"/>
    <path d="M144 88h72M180 52c-15 13-21 25-21 36s6 24 21 36M180 52c15 13 21 25 21 36s-6 24-21 36M180 52v72"/>
    <path d="M165 128c5 8 10 13 15 18 5-5 10-10 15-18"/>
    <rect x="376" y="44" width="172" height="92" rx="12"/>
    <path d="M390 59h144M400 77h55M400 92h92M400 107h72M464 136v16M432 152h64"/>
    <circle cx="516" cy="77" r="9" stroke="#FF9A83"/>
    <path d="M516 86v26M502 99h28"/>
    <path d="M641 60v47c0 16 12 27 28 27s28-11 28-27V60"/>
    <rect x="652" y="42" width="34" height="70" rx="17"/>
    <path d="M669 134v18M647 152h44"/>
    <path d="M744 58h86a10 10 0 0 1 10 10v42a10 10 0 0 1-10 10h-40l-22 16v-16h-24a10 10 0 0 1-10-10V68a10 10 0 0 1 10-10Z"/>
    <path d="M760 77h60M760 92h44M760 107h31"/>
    <path d="M932 92l44-33 46 27 48-39M976 59l-2 69M1022 86l28 42M932 92l42 36"/>
    <circle cx="932" cy="92" r="9"/>
    <circle cx="976" cy="59" r="9"/>
    <circle cx="1022" cy="86" r="9"/>
    <circle cx="1070" cy="47" r="9"/>
    <circle cx="974" cy="128" r="9"/>
    <circle cx="1050" cy="128" r="9"/>
    <path d="M1112 74l7 14 16 2-12 11 3 16-14-8-14 8 3-16-12-11 16-2 7-14Z" stroke="#FFD166"/>
  </g>
  <g fill="#FF9A83">
    <circle cx="109" cy="89" r="6"/>
    <circle cx="180" cy="146" r="6"/>
    <circle cx="327" cy="97" r="6"/>
    <circle cx="623" cy="102" r="6"/>
    <circle cx="744" cy="86" r="6"/>
    <circle cx="930" cy="92" r="5"/>
  </g>
  <g fill="#FFD166">
    <circle cx="216" cy="95" r="6"/>
    <circle cx="548" cy="95" r="6"/>
    <circle cx="842" cy="98" r="6"/>
    <circle cx="1070" cy="47" r="5"/>
  </g>
  <g fill="#D7E7DD" stroke="#315D54" stroke-width="2">
    <circle cx="18" cy="96" r="5"/>
    <circle cx="1182" cy="96" r="5"/>
    <circle cx="1022" cy="86" r="5"/>
    <circle cx="1050" cy="128" r="5"/>
  </g>
</svg>
